<svg width="192" height="68" viewBox="0 0 192 68" fill="none" xmlns="http://www.w3.org/2000/svg">
<path d="M61.6541 41.404L58.9541 44.068V49H53.3381V22.288H58.9541V37.408L67.1621 29.632H73.8581L65.7941 37.84L74.5781 49H67.7741L61.6541 41.404ZM73.6837 29.632H79.2997V49H73.6837V29.632ZM76.4917 26.932C75.4597 26.932 74.6197 26.632 73.9717 26.032C73.3237 25.432 72.9997 24.688 72.9997 23.8C72.9997 22.912 73.3237 22.168 73.9717 21.568C74.6197 20.968 75.4597 20.668 76.4917 20.668C77.5237 20.668 78.3637 20.956 79.0117 21.532C79.6597 22.108 79.9837 22.828 79.9837 23.692C79.9837 24.628 79.6597 25.408 79.0117 26.032C78.3637 26.632 77.5237 26.932 76.4917 26.932ZM93.9438 48.064C93.3918 48.472 92.7078 48.784 91.8918 49C91.0998 49.192 90.2598 49.288 89.3718 49.288C87.0678 49.288 85.2798 48.7 84.0078 47.524C82.7598 46.348 82.1358 44.62 82.1358 42.34V34.384H79.1478V30.064H82.1358V25.348H87.7518V30.064H92.5758V34.384H87.7518V42.268C87.7518 43.084 87.9558 43.72 88.3638 44.176C88.7958 44.608 89.3958 44.824 90.1638 44.824C91.0518 44.824 91.8078 44.584 92.4318 44.104L93.9438 48.064ZM106.348 48.064C105.796 48.472 105.112 48.784 104.296 49C103.504 49.192 102.664 49.288 101.776 49.288C99.4723 49.288 97.6843 48.7 96.4123 47.524C95.1643 46.348 94.5403 44.62 94.5403 42.34V34.384H91.5523V30.064H94.5403V25.348H100.156V30.064H104.98V34.384H100.156V42.268C100.156 43.084 100.36 43.72 100.768 44.176C101.2 44.608 101.8 44.824 102.568 44.824C103.456 44.824 104.212 44.584 104.836 44.104L106.348 48.064ZM110.185 32.188C110.857 31.252 111.757 30.544 112.885 30.064C114.037 29.584 115.357 29.344 116.845 29.344V34.528C116.221 34.48 115.801 34.456 115.585 34.456C113.977 34.456 112.717 34.912 111.805 35.824C110.893 36.712 110.437 38.056 110.437 39.856V49H104.821V29.632H110.185V32.188Z" fill="white"/>
<path d="M6.91956 46.5304C6.91956 46.8877 7.11015 47.2178 7.41956 47.3965L17.6447 53.3V40.9156L6.91956 34.7234V46.5304Z" fill="url(#paint0_linear)" fill-opacity="0.85"/>
<path d="M28.3698 46.5304C28.3698 46.8877 28.1792 47.2178 27.8698 47.3965L17.6447 53.3V40.9156L28.3698 34.7234V46.5304Z" fill="url(#paint1_linear)" fill-opacity="0.85"/>
<path d="M28.3698 34.7235L18.1447 28.82C17.8353 28.6414 17.4541 28.6414 17.1447 28.82L6.91953 34.7235L17.6447 40.9157L28.3698 34.7235Z" fill="url(#paint2_linear)" fill-opacity="0.85"/>
<path d="M1.64468 24.8631C1.64468 25.6401 2.49199 26.1202 3.15852 25.721L17.6447 17.0444V11.6277L2.13084 20.9199C1.82927 21.1005 1.64468 21.4262 1.64468 21.7778V24.8631Z" fill="#3D3C40"/>
<path d="M17.6447 17.0444L32.1308 25.721C32.7974 26.1202 33.6447 25.6401 33.6447 24.8631V21.7778C33.6447 21.4262 33.4601 21.1005 33.1585 20.9199L17.6447 11.6277V17.0444Z" fill="#3D3C40"/>
<path d="M30.9521 31.6494C32.2664 30.876 32.2664 28.9753 30.9521 28.2019L18.7774 21.0379C18.1513 20.6696 17.3748 20.6696 16.7488 21.0379L4.57404 28.2019C3.25976 28.9753 3.25976 30.876 4.57404 31.6494L16.7488 38.8133C17.3748 39.1817 18.1513 39.1817 18.7773 38.8133L30.9521 31.6494Z" fill="#636363" fill-opacity="0.7"/>
<path fill-rule="evenodd" clip-rule="evenodd" d="M19.9857 40.8232C19.375 41.1826 19 41.8383 19 42.5469V56.8749C19 58.4218 20.681 59.3831 22.0143 58.5986L34.1327 51.4678C34.7434 51.1084 35.1184 50.4527 35.1184 49.7441V35.4161C35.1184 33.8692 33.4374 32.9079 32.1041 33.6924L19.9857 40.8232Z" fill="#9B9B9B" fill-opacity="0.7"/>
<path d="M0 49.7441C0 50.4527 0.374973 51.1084 0.985709 51.4678L13.1041 58.5986C14.4374 59.3831 16.1184 58.4218 16.1184 56.8749V42.5469C16.1184 41.8383 15.7434 41.1826 15.1327 40.8232L3.01429 33.6924C1.68102 32.9079 0 33.8692 0 35.4161V49.7441Z" fill="white" fill-opacity="0.7"/>
<rect x="115.075" y="1.43542" width="76.8665" height="26.1918" rx="12" fill="#9B9B9B"/>
<path d="M135.168 10.9913C136.056 10.9913 136.86 11.1953 137.58 11.6033C138.3 11.9993 138.864 12.5633 139.272 13.2953C139.68 14.0273 139.884 14.8613 139.884 15.7973C139.884 16.7333 139.68 17.5673 139.272 18.2993C138.864 19.0313 138.3 19.6013 137.58 20.0093C136.86 20.4173 136.056 20.6213 135.168 20.6213C134.376 20.6213 133.662 20.4533 133.026 20.1173C132.402 19.7813 131.898 19.2953 131.514 18.6593V20.5313H130.29V7.17531H131.568V12.8633C131.964 12.2513 132.468 11.7893 133.08 11.4773C133.704 11.1533 134.4 10.9913 135.168 10.9913ZM135.078 19.4873C135.738 19.4873 136.338 19.3373 136.878 19.0373C137.418 18.7253 137.838 18.2873 138.138 17.7233C138.45 17.1593 138.606 16.5173 138.606 15.7973C138.606 15.0773 138.45 14.4353 138.138 13.8713C137.838 13.3073 137.418 12.8753 136.878 12.5753C136.338 12.2633 135.738 12.1073 135.078 12.1073C134.406 12.1073 133.8 12.2633 133.26 12.5753C132.732 12.8753 132.312 13.3073 132 13.8713C131.7 14.4353 131.55 15.0773 131.55 15.7973C131.55 16.5173 131.7 17.1593 132 17.7233C132.312 18.2873 132.732 18.7253 133.26 19.0373C133.8 19.3373 134.406 19.4873 135.078 19.4873ZM153.523 16.1933H145.603C145.675 17.1773 146.053 17.9753 146.737 18.5873C147.421 19.1873 148.285 19.4873 149.329 19.4873C149.917 19.4873 150.457 19.3853 150.949 19.1813C151.441 18.9653 151.867 18.6533 152.227 18.2453L152.947 19.0733C152.527 19.5773 151.999 19.9613 151.363 20.2253C150.739 20.4893 150.049 20.6213 149.293 20.6213C148.321 20.6213 147.457 20.4173 146.701 20.0093C145.957 19.5893 145.375 19.0133 144.955 18.2813C144.535 17.5493 144.325 16.7213 144.325 15.7973C144.325 14.8733 144.523 14.0453 144.919 13.3133C145.327 12.5813 145.879 12.0113 146.575 11.6033C147.283 11.1953 148.075 10.9913 148.951 10.9913C149.827 10.9913 150.613 11.1953 151.309 11.6033C152.005 12.0113 152.551 12.5813 152.947 13.3133C153.343 14.0333 153.541 14.8613 153.541 15.7973L153.523 16.1933ZM148.951 12.0893C148.039 12.0893 147.271 12.3833 146.647 12.9713C146.035 13.5473 145.687 14.3033 145.603 15.2393H152.317C152.233 14.3033 151.879 13.5473 151.255 12.9713C150.643 12.3833 149.875 12.0893 148.951 12.0893ZM163.919 19.9553C163.679 20.1713 163.379 20.3393 163.019 20.4593C162.671 20.5673 162.305 20.6213 161.921 20.6213C161.033 20.6213 160.349 20.3813 159.869 19.9013C159.389 19.4213 159.149 18.7433 159.149 17.8673V12.1433H157.457V11.0633H159.149V8.99331H160.427V11.0633H163.307V12.1433H160.427V17.7953C160.427 18.3593 160.565 18.7913 160.841 19.0913C161.129 19.3793 161.537 19.5233 162.065 19.5233C162.329 19.5233 162.581 19.4813 162.821 19.3973C163.073 19.3133 163.289 19.1933 163.469 19.0373L163.919 19.9553ZM172.347 10.9913C173.583 10.9913 174.531 11.3033 175.191 11.9273C175.851 12.5393 176.181 13.4513 176.181 14.6633V20.5313H174.957V19.0553C174.669 19.5473 174.243 19.9313 173.679 20.2073C173.127 20.4833 172.467 20.6213 171.699 20.6213C170.643 20.6213 169.803 20.3693 169.179 19.8653C168.555 19.3613 168.243 18.6953 168.243 17.8673C168.243 17.0633 168.531 16.4153 169.107 15.9233C169.695 15.4313 170.625 15.1853 171.897 15.1853H174.903V14.6093C174.903 13.7933 174.675 13.1753 174.219 12.7553C173.763 12.3233 173.097 12.1073 172.221 12.1073C171.621 12.1073 171.045 12.2093 170.493 12.4133C169.941 12.6053 169.467 12.8753 169.071 13.2233L168.495 12.2693C168.975 11.8613 169.551 11.5493 170.223 11.3333C170.895 11.1053 171.603 10.9913 172.347 10.9913ZM171.897 19.6133C172.617 19.6133 173.235 19.4513 173.751 19.1273C174.267 18.7913 174.651 18.3113 174.903 17.6873V16.1393H171.933C170.313 16.1393 169.503 16.7033 169.503 17.8313C169.503 18.3833 169.713 18.8213 170.133 19.1453C170.553 19.4573 171.141 19.6133 171.897 19.6133Z" fill="#1D1D1F"/>
<defs>
<linearGradient id="paint0_linear" x1="12.2821" y1="34.7234" x2="12.2821" y2="53.3" gradientUnits="userSpaceOnUse">
<stop stop-color="white"/>
<stop offset="1" stop-color="white" stop-opacity="0.3"/>
<stop offset="1" stop-color="#A65D5D" stop-opacity="0"/>
</linearGradient>
<linearGradient id="paint1_linear" x1="23.0073" y1="34.7234" x2="23.0073" y2="53.3" gradientUnits="userSpaceOnUse">
<stop stop-color="white" stop-opacity="0.3"/>
<stop offset="1" stop-color="white"/>
</linearGradient>
<linearGradient id="paint2_linear" x1="17.6447" y1="28.5313" x2="17.6447" y2="40.9157" gradientUnits="userSpaceOnUse">
<stop stop-color="white" stop-opacity="0.3"/>
<stop offset="1" stop-color="white"/>
</linearGradient>
</defs>
</svg>
