<svg width="11" height="7" viewBox="0 0 11 7" fill="none" xmlns="http://www.w3.org/2000/svg">
<path d="M9.71696 0.244543L5.5 4.93707L1.28304 0.244543C1.1417 0.0879146 0.950497 0 0.751202 0C0.551907 0 0.360708 0.0879146 0.219366 0.244543V0.244543C0.0788631 0.402106 -2.37842e-07 0.615248 -2.37842e-07 0.837416C-2.37842e-07 1.05958 0.0788631 1.27273 0.219366 1.43029L5.0172 6.77876C5.14572 6.9205 5.31921 7 5.5 7C5.68079 7 5.85428 6.9205 5.9828 6.77876L10.7806 1.43029C10.9211 1.27273 11 1.05958 11 0.837416C11 0.615248 10.9211 0.402106 10.7806 0.244543V0.244543C10.6393 0.0879146 10.4481 0 10.2488 0C10.0495 0 9.8583 0.0879146 9.71696 0.244543Z" fill="#9B9B9B"/>
</svg>
