<svg width="49" height="49" viewBox="0 0 49 49" fill="none" xmlns="http://www.w3.org/2000/svg">
<circle cx="24.2862" cy="24.2862" r="24.0362" stroke="#636363" stroke-width="0.5"/>
<path d="M15.7451 19.1941C15.7451 23.8911 19.5881 27.7342 24.2852 27.7342C28.9822 27.7342 32.8252 23.8911 32.8252 19.1941C32.8252 14.4971 28.9822 10.6541 24.2852 10.6541C19.5881 10.6541 15.7451 14.4971 15.7451 19.1941ZM30.8158 19.1941C30.8158 22.786 27.877 25.7247 24.2852 25.7247C20.6933 25.7247 17.7545 22.786 17.7545 19.1941C17.7545 15.6023 20.6933 12.6635 24.2852 12.6635C27.877 12.6635 30.8158 15.6023 30.8158 19.1941Z" fill="#636363"/>
<path d="M14.3385 36.877C17.0009 34.2145 20.5174 32.7577 24.2851 32.7577C28.0528 32.7577 31.5693 34.2145 34.2318 36.877L35.6635 35.4453C32.6242 32.4312 28.5803 30.7483 24.2851 30.7483C19.99 30.7483 15.946 32.4312 12.9067 35.4453L14.3385 36.877Z" fill="#636363"/>
</svg>
