<svg width="28" height="28" viewBox="0 0 28 28" fill="none" xmlns="http://www.w3.org/2000/svg">
<g clip-path="url(#clip0)">
<path d="M24.2399 12.5442V12.2334C24.2399 9.54808 23.1731 6.97275 21.2743 5.07394C19.3755 3.17514 16.8002 2.1084 14.1149 2.1084C11.4296 2.1084 8.85422 3.17514 6.95541 5.07394C5.05661 6.97275 3.98987 9.54808 3.98987 12.2334V12.5442C3.00561 12.891 2.15279 13.5338 1.5485 14.3846C0.944214 15.2354 0.618078 16.2524 0.614868 17.2959L0.614868 20.6709C0.616357 22.0131 1.1502 23.2999 2.09928 24.249C3.04836 25.1981 4.33517 25.7319 5.67737 25.7334C5.89901 25.7335 6.1185 25.69 6.3233 25.6052C6.52809 25.5204 6.71417 25.3961 6.87089 25.2394C7.02762 25.0827 7.15191 24.8966 7.23667 24.6918C7.32143 24.487 7.36499 24.2675 7.36487 24.0459V12.2334C7.36487 10.4432 8.07603 8.7263 9.3419 7.46043C10.6078 6.19456 12.3247 5.4834 14.1149 5.4834C15.9051 5.4834 17.622 6.19456 18.8878 7.46043C20.1537 8.7263 20.8649 10.4432 20.8649 12.2334V24.0459C20.8647 24.2675 20.9083 24.487 20.9931 24.6918C21.0778 24.8966 21.2021 25.0827 21.3588 25.2394C21.5156 25.3961 21.7016 25.5204 21.9064 25.6052C22.1112 25.69 22.3307 25.7335 22.5524 25.7334C23.8946 25.7319 25.1814 25.1981 26.1305 24.249C27.0795 23.2999 27.6134 22.0131 27.6149 20.6709V17.2959C27.6117 16.2524 27.2855 15.2354 26.6812 14.3846C26.0769 13.5338 25.2241 12.891 24.2399 12.5442Z" fill="#636363"/>
</g>
<defs>
<clipPath id="clip0">
<rect width="27" height="27" fill="white" transform="translate(0.614868 0.420898)"/>
</clipPath>
</defs>
</svg>
