<svg width="13" height="11" viewBox="0 0 13 11" fill="none" xmlns="http://www.w3.org/2000/svg">
<path d="M10.4318 0.589594L6.51945 4.19468L2.60713 0.589594C2.17521 0.191592 1.47412 0.191593 1.0422 0.589594C0.610275 0.987596 0.610275 1.63363 1.0422 2.03163L4.95452 5.63672L1.0422 9.24181C0.610275 9.63981 0.610275 10.2858 1.0422 10.6838C1.47412 11.0818 2.17521 11.0818 2.60713 10.6838L6.51945 7.07875L10.4318 10.6838C10.8637 11.0818 11.5648 11.0818 11.9967 10.6838C12.4286 10.2858 12.4286 9.63981 11.9967 9.24181L8.08438 5.63672L11.9967 2.03163C12.4286 1.63363 12.4286 0.987596 11.9967 0.589594C11.5648 0.191593 10.8637 0.191592 10.4318 0.589594Z" fill="white"/>
</svg>
