<svg width="32" height="23" viewBox="0 0 32 23" fill="none" xmlns="http://www.w3.org/2000/svg">
<path fill-rule="evenodd" clip-rule="evenodd" d="M30.1492 2.26545C31.0836 3.23256 31.3876 5.42909 31.3876 5.42909C31.3876 5.42909 31.6994 8.00649 31.6994 10.5848V13.0007C31.6994 15.5791 31.3876 18.1565 31.3876 18.1565C31.3876 18.1565 31.0826 20.3521 30.1492 21.3173C29.0802 22.4602 27.8956 22.5788 27.2265 22.6458C27.1534 22.6531 27.0865 22.6598 27.0265 22.6671C22.6644 22.9873 16.115 22.9985 16.115 22.9985C16.115 22.9985 8.01047 22.9229 5.51715 22.6783C5.39914 22.6558 5.25617 22.6382 5.09432 22.6183C4.30472 22.521 3.06554 22.3684 2.08068 21.3164C1.1463 20.3511 0.842304 18.1555 0.842304 18.1555C0.842304 18.1555 0.530518 15.5791 0.530518 12.9998V10.5839C0.530518 8.00649 0.842304 5.42909 0.842304 5.42909C0.842304 5.42909 1.14727 3.23256 2.08068 2.26545C3.15438 1.1185 4.34293 1.00314 5.0106 0.938339C5.08089 0.931517 5.14541 0.925254 5.20341 0.918408C9.56452 0.594482 16.1072 0.594482 16.1072 0.594482H16.1218C16.1218 0.594482 22.6644 0.594482 27.0265 0.918408C27.0845 0.925257 27.1491 0.931522 27.2194 0.938348C27.8873 1.00315 29.0765 1.11855 30.1492 2.26545ZM12.2225 17.3975V6.19547L21.9658 11.7965L12.2225 17.3975Z" fill="#636363"/>
</svg>
