<svg width="25" height="24" viewBox="0 0 25 24" fill="none" xmlns="http://www.w3.org/2000/svg">
<path d="M12.2202 0V1.5H22.4202C22.7202 1.5 22.9202 1.7 22.9202 2V6.1C22.9202 6.4 22.7202 6.6 22.4202 6.6H12.2202C11.9202 6.6 11.7202 6.4 11.7202 6.1V2C11.7202 1.7 11.9202 1.5 12.2202 1.5V0ZM12.2202 0C11.1202 0 10.2202 0.9 10.2202 2V6.1C10.2202 7.2 11.1202 8.1 12.2202 8.1H22.4202C23.5202 8.1 24.4202 7.2 24.4202 6.1V2C24.4202 0.9 23.5202 0 22.4202 0H12.2202Z" fill="#636363"/>
<path d="M2.42017 1.5H6.02017C6.32017 1.5 6.52017 1.7 6.52017 2L6.52017 21.9986C6.52017 22.1986 6.42017 22.2986 6.42017 22.3986C6.32017 22.3986 6.22017 22.4986 6.02017 22.4986H2.42017C2.12017 22.4986 1.92017 22.2986 1.92017 21.9986L1.92017 2C1.92017 1.8 2.02017 1.7 2.02017 1.6C2.12017 1.6 2.22017 1.5 2.42017 1.5ZM2.42017 0C1.32017 0 0.420166 0.9 0.420166 2V21.9986C0.420166 23.0986 1.32017 23.9986 2.42017 23.9986H6.02017C7.12017 23.9986 8.02017 23.0986 8.02017 21.9986L8.02017 2C8.02017 0.9 7.12017 0 6.02017 0H2.42017Z" fill="#636363"/>
<path d="M12.2202 10.4V11.9H22.4202C22.7202 11.9 22.9202 12.1 22.9202 12.4V22C22.9202 22.2 22.8202 22.3 22.8202 22.4C22.7202 22.5 22.6202 22.5 22.4202 22.5H12.2202C11.9202 22.5 11.7202 22.3 11.7202 22V12.4C11.7202 12.1 11.9202 11.9 12.2202 11.9V10.4ZM12.2202 10.4C11.1202 10.4 10.2202 11.3 10.2202 12.4V22C10.2202 23.1 11.1202 24 12.2202 24H22.4202C23.5202 24 24.4202 23.1 24.4202 22V12.4C24.4202 11.3 23.5202 10.4 22.4202 10.4H12.2202Z" fill="#636363"/>
</svg>
