<svg width="29" height="28" viewBox="0 0 29 28" fill="none" xmlns="http://www.w3.org/2000/svg">
<g clip-path="url(#clip0)">
<path d="M19.7692 14.4639C18.1812 15.8563 16.1412 16.624 14.0292 16.624C11.9172 16.624 9.87722 15.8563 8.28924 14.4639C6.07773 15.5393 4.21285 17.2145 2.90714 19.2983C1.60143 21.3822 0.907432 23.791 0.904236 26.2501C0.904236 26.4822 0.996423 26.7047 1.16052 26.8688C1.32461 27.0329 1.54717 27.1251 1.77924 27.1251H26.2792C26.5113 27.1251 26.7339 27.0329 26.898 26.8688C27.062 26.7047 27.1542 26.4822 27.1542 26.2501C27.151 23.791 26.457 21.3822 25.1513 19.2983C23.8456 17.2145 21.9807 15.5393 19.7692 14.4639Z" fill="#636363"/>
<path d="M14.0292 14.875C17.8952 14.875 21.0292 11.741 21.0292 7.875C21.0292 4.00901 17.8952 0.875 14.0292 0.875C10.1632 0.875 7.02924 4.00901 7.02924 7.875C7.02924 11.741 10.1632 14.875 14.0292 14.875Z" fill="#636363"/>
</g>
<defs>
<clipPath id="clip0">
<rect width="28" height="28" fill="white" transform="translate(0.0292358)"/>
</clipPath>
</defs>
</svg>
