<svg width="118" height="64" viewBox="0 0 118 64" fill="none" xmlns="http://www.w3.org/2000/svg">
<path d="M61.9146 37.404L59.2146 40.068V45H53.5986V18.288H59.2146V33.408L67.4226 25.632H74.1186L66.0546 33.84L74.8386 45H68.0346L61.9146 37.404ZM73.9443 25.632H79.5603V45H73.9443V25.632ZM76.7523 22.932C75.7203 22.932 74.8803 22.632 74.2323 22.032C73.5843 21.432 73.2603 20.688 73.2603 19.8C73.2603 18.912 73.5843 18.168 74.2323 17.568C74.8803 16.968 75.7203 16.668 76.7523 16.668C77.7843 16.668 78.6243 16.956 79.2723 17.532C79.9203 18.108 80.2443 18.828 80.2443 19.692C80.2443 20.628 79.9203 21.408 79.2723 22.032C78.6243 22.632 77.7843 22.932 76.7523 22.932ZM94.2044 44.064C93.6524 44.472 92.9684 44.784 92.1524 45C91.3604 45.192 90.5204 45.288 89.6324 45.288C87.3284 45.288 85.5404 44.7 84.2684 43.524C83.0204 42.348 82.3964 40.62 82.3964 38.34V30.384H79.4084V26.064H82.3964V21.348H88.0124V26.064H92.8364V30.384H88.0124V38.268C88.0124 39.084 88.2164 39.72 88.6244 40.176C89.0564 40.608 89.6564 40.824 90.4244 40.824C91.3124 40.824 92.0684 40.584 92.6924 40.104L94.2044 44.064ZM106.609 44.064C106.057 44.472 105.373 44.784 104.557 45C103.765 45.192 102.925 45.288 102.037 45.288C99.7329 45.288 97.9449 44.7 96.6729 43.524C95.4249 42.348 94.8009 40.62 94.8009 38.34V30.384H91.8129V26.064H94.8009V21.348H100.417V26.064H105.241V30.384H100.417V38.268C100.417 39.084 100.621 39.72 101.029 40.176C101.461 40.608 102.061 40.824 102.829 40.824C103.717 40.824 104.473 40.584 105.097 40.104L106.609 44.064ZM110.445 28.188C111.117 27.252 112.017 26.544 113.145 26.064C114.297 25.584 115.617 25.344 117.105 25.344V30.528C116.481 30.48 116.061 30.456 115.845 30.456C114.237 30.456 112.977 30.912 112.065 31.824C111.153 32.712 110.697 34.056 110.697 35.856V45H105.081V25.632H110.445V28.188Z" fill="white"/>
<path d="M7.18013 42.5304C7.18013 42.8877 7.37073 43.2178 7.68013 43.3965L17.9053 49.3V36.9156L7.18013 30.7234V42.5304Z" fill="url(#paint0_linear)" fill-opacity="0.85"/>
<path d="M28.6304 42.5304C28.6304 42.8877 28.4398 43.2178 28.1304 43.3965L17.9053 49.3V36.9156L28.6304 30.7234V42.5304Z" fill="url(#paint1_linear)" fill-opacity="0.85"/>
<path d="M28.6304 30.7235L18.4052 24.82C18.0958 24.6414 17.7146 24.6414 17.4052 24.82L7.1801 30.7235L17.9052 36.9157L28.6304 30.7235Z" fill="url(#paint2_linear)" fill-opacity="0.85"/>
<path d="M1.90526 20.8631C1.90526 21.6401 2.75256 22.1202 3.4191 21.721L17.9052 13.0444V7.62775L2.39142 16.9199C2.08984 17.1005 1.90526 17.4262 1.90526 17.7778V20.8631Z" fill="#3D3C40"/>
<path d="M17.9052 13.0444L32.3914 21.721C33.058 22.1202 33.9053 21.6401 33.9053 20.8631V17.7778C33.9053 17.4262 33.7207 17.1005 33.4191 16.9199L17.9052 7.62775V13.0444Z" fill="#3D3C40"/>
<path d="M31.2127 27.6494C32.5269 26.876 32.5269 24.9753 31.2127 24.2019L19.0379 17.0379C18.4119 16.6696 17.6354 16.6696 17.0093 17.0379L4.83462 24.2019C3.52034 24.9753 3.52034 26.876 4.83462 27.6494L17.0093 34.8133C17.6354 35.1817 18.4119 35.1817 19.0379 34.8133L31.2127 27.6494Z" fill="#636363" fill-opacity="0.7"/>
<path fill-rule="evenodd" clip-rule="evenodd" d="M20.2463 36.8232C19.6356 37.1826 19.2606 37.8383 19.2606 38.5469V52.8749C19.2606 54.4218 20.9416 55.3831 22.2749 54.5986L34.3933 47.4678C35.004 47.1084 35.379 46.4527 35.379 45.7441V31.4161C35.379 29.8692 33.6979 28.9079 32.3647 29.6924L20.2463 36.8232Z" fill="#9B9B9B" fill-opacity="0.7"/>
<path d="M0.260584 45.7441C0.260584 46.4527 0.635556 47.1084 1.24629 47.4678L13.3647 54.5986C14.6979 55.3831 16.379 54.4218 16.379 52.8749V38.5469C16.379 37.8383 16.004 37.1826 15.3932 36.8232L3.27487 29.6924C1.94161 28.9079 0.260584 29.8692 0.260584 31.4161V45.7441Z" fill="white" fill-opacity="0.7"/>
<defs>
<linearGradient id="paint0_linear" x1="12.5427" y1="30.7234" x2="12.5427" y2="49.3" gradientUnits="userSpaceOnUse">
<stop stop-color="white"/>
<stop offset="1" stop-color="white" stop-opacity="0.3"/>
<stop offset="1" stop-color="#A65D5D" stop-opacity="0"/>
</linearGradient>
<linearGradient id="paint1_linear" x1="23.2678" y1="30.7234" x2="23.2678" y2="49.3" gradientUnits="userSpaceOnUse">
<stop stop-color="white" stop-opacity="0.3"/>
<stop offset="1" stop-color="white"/>
</linearGradient>
<linearGradient id="paint2_linear" x1="17.9053" y1="24.5313" x2="17.9053" y2="36.9157" gradientUnits="userSpaceOnUse">
<stop stop-color="white" stop-opacity="0.3"/>
<stop offset="1" stop-color="white"/>
</linearGradient>
</defs>
</svg>
