<svg width="43" height="43" viewBox="0 0 43 43" fill="none" xmlns="http://www.w3.org/2000/svg">
<path d="M29.7754 21.7734C32.1904 21.7734 34.1329 19.8134 34.1329 17.3984C34.1329 14.9834 32.1904 13.0234 29.7754 13.0234C27.3604 13.0234 25.4004 14.9834 25.4004 17.3984C25.4004 19.8134 27.3604 21.7734 29.7754 21.7734ZM16.6504 20.0234C19.5554 20.0234 21.8829 17.6784 21.8829 14.7734C21.8829 11.8684 19.5554 9.52344 16.6504 9.52344C13.7454 9.52344 11.4004 11.8684 11.4004 14.7734C11.4004 17.6784 13.7454 20.0234 16.6504 20.0234ZM29.7754 25.2734C26.5729 25.2734 20.1504 26.8834 20.1504 30.0859V34.0234H39.4004V30.0859C39.4004 26.8834 32.9779 25.2734 29.7754 25.2734ZM16.6504 23.5234C12.5729 23.5234 4.40039 25.5709 4.40039 29.6484V34.0234H16.6504V30.0859C16.6504 28.5984 17.2279 25.9909 20.7979 24.0134C19.2754 23.6984 17.8054 23.5234 16.6504 23.5234Z" fill="white"/>
</svg>
