<svg width="29" height="29" viewBox="0 0 29 29" fill="none" xmlns="http://www.w3.org/2000/svg">
<path d="M26.1382 12.9863H16.1382V2.98633C16.1382 1.88233 15.2422 0.986328 14.1382 0.986328C13.0342 0.986328 12.1382 1.88233 12.1382 2.98633V12.9863H2.13818C1.03418 12.9863 0.138184 13.8823 0.138184 14.9863C0.138184 16.0903 1.03418 16.9863 2.13818 16.9863H12.1382V26.9863C12.1382 28.0903 13.0342 28.9863 14.1382 28.9863C15.2422 28.9863 16.1382 28.0903 16.1382 26.9863V16.9863H26.1382C27.2422 16.9863 28.1382 16.0903 28.1382 14.9863C28.1382 13.8823 27.2422 12.9863 26.1382 12.9863Z" fill="white"/>
</svg>
