<svg width="37" height="37" viewBox="0 0 37 37" fill="none" xmlns="http://www.w3.org/2000/svg">
<path d="M14.1149 14.3418C14.1149 11.7918 16.0649 9.8418 18.6149 9.8418C21.1649 9.8418 23.1149 11.7918 23.1149 14.3418C23.1149 16.8918 21.1649 18.8418 18.6149 18.8418C16.0649 18.8418 14.1149 16.8918 14.1149 14.3418ZM18.6149 21.8418C11.7149 21.8418 9.61487 26.7918 9.61487 26.7918V29.3418H27.6149V26.7918C27.6149 26.7918 25.5149 21.8418 18.6149 21.8418Z" fill="#636363"/>
<path d="M28.3649 17.3418C30.4359 17.3418 32.1149 15.6629 32.1149 13.5918C32.1149 11.5207 30.4359 9.8418 28.3649 9.8418C26.2938 9.8418 24.6149 11.5207 24.6149 13.5918C24.6149 15.6629 26.2938 17.3418 28.3649 17.3418Z" fill="#636363"/>
<path d="M28.3648 20.3418C26.5648 20.3418 25.2148 20.7918 24.1648 21.5418C27.6148 23.1918 28.9648 26.0418 28.9648 26.3418V26.4918H35.1148V24.5418C35.1148 24.3918 33.4648 20.3418 28.3648 20.3418Z" fill="#636363"/>
<path d="M28.3649 17.3418C30.4359 17.3418 32.1149 15.6629 32.1149 13.5918C32.1149 11.5207 30.4359 9.8418 28.3649 9.8418C26.2938 9.8418 24.6149 11.5207 24.6149 13.5918C24.6149 15.6629 26.2938 17.3418 28.3649 17.3418Z" fill="#636363"/>
<path d="M28.3648 20.3418C26.5648 20.3418 25.2148 20.7918 24.1648 21.5418C27.6148 23.1918 28.9648 26.0418 28.9648 26.3418V26.4918H35.1148V24.5418C35.1148 24.3918 33.4648 20.3418 28.3648 20.3418Z" fill="#636363"/>
<path d="M8.86487 17.3418C10.9359 17.3418 12.6149 15.6629 12.6149 13.5918C12.6149 11.5207 10.9359 9.8418 8.86487 9.8418C6.7938 9.8418 5.11487 11.5207 5.11487 13.5918C5.11487 15.6629 6.7938 17.3418 8.86487 17.3418Z" fill="#636363"/>
<path d="M8.86487 20.3418C10.6649 20.3418 12.0149 20.7918 13.0649 21.5418C9.61487 23.1918 8.26487 26.0418 8.26487 26.3418V26.4918H2.11487V24.5418C2.11487 24.3918 3.76487 20.3418 8.86487 20.3418Z" fill="#636363"/>
</svg>
