<svg width="126" height="91" viewBox="0 0 126 91" fill="none" xmlns="http://www.w3.org/2000/svg">
<path d="M12.7679 62.6101C12.7679 62.9674 12.9585 63.2975 13.2679 63.4762L31.7382 74.14V52.235L12.7679 41.2825V62.6101Z" fill="url(#paint0_linear)" fill-opacity="0.85"/>
<path d="M50.7084 62.6101C50.7084 62.9674 50.5178 63.2975 50.2084 63.4762L31.7381 74.14V52.235L50.7084 41.2825V62.6101Z" fill="url(#paint1_linear)" fill-opacity="0.85"/>
<path d="M50.7084 41.2826L32.2381 30.6188C31.9286 30.4402 31.5475 30.4402 31.2381 30.6188L12.7678 41.2826L31.7381 52.2352L50.7084 41.2826Z" fill="url(#paint2_linear)" fill-opacity="0.85"/>
<path d="M3.43799 25.1985C3.43799 25.9755 4.28529 26.4556 4.95183 26.0564L31.7382 10.0124V0.43161L3.92415 17.0911C3.62257 17.2717 3.43799 17.5975 3.43799 17.949V25.1985Z" fill="#3D3C40"/>
<path d="M31.7382 10.0124L58.5247 26.0564C59.1912 26.4556 60.0385 25.9755 60.0385 25.1985V17.949C60.0385 17.5975 59.8539 17.2717 59.5524 17.0911L31.7382 0.43161V10.0124Z" fill="#3D3C40"/>
<path d="M57.528 34.5201C58.8422 33.7467 58.8422 31.846 57.528 31.0727L32.9619 16.6173C32.3359 16.2489 31.5594 16.2489 30.9334 16.6173L6.36735 31.0727C5.05307 31.846 5.05307 33.7467 6.36735 34.5201L30.9334 48.9755C31.5594 49.3439 32.3359 49.3439 32.9619 48.9755L57.528 34.5201Z" fill="#636363" fill-opacity="0.7"/>
<path fill-rule="evenodd" clip-rule="evenodd" d="M35.1212 52.5176C34.5105 52.8769 34.1355 53.5326 34.1355 54.2413V83.152C34.1355 84.699 35.8165 85.6603 37.1498 84.8757L61.6594 70.4535C62.2702 70.0942 62.6451 69.4384 62.6451 68.7298V39.8191C62.6451 38.2721 60.9641 37.3108 59.6309 38.0954L35.1212 52.5176Z" fill="#9B9B9B" fill-opacity="0.7"/>
<path d="M0.52887 68.7298C0.52887 69.4384 0.903842 70.0942 1.51458 70.4535L26.0242 84.8757C27.3575 85.6603 29.0385 84.699 29.0385 83.152V54.2413C29.0385 53.5326 28.6635 52.8769 28.0528 52.5176L3.54316 38.0954C2.20989 37.3108 0.52887 38.2721 0.52887 39.8191V68.7298Z" fill="white" fill-opacity="0.7"/>
<rect x="48.3903" y="63.9041" width="76.8665" height="26.1918" rx="12" fill="white"/>
<path d="M68.4835 73.46C69.3715 73.46 70.1755 73.664 70.8955 74.072C71.6155 74.468 72.1795 75.032 72.5875 75.764C72.9955 76.496 73.1995 77.33 73.1995 78.266C73.1995 79.202 72.9955 80.036 72.5875 80.768C72.1795 81.5 71.6155 82.07 70.8955 82.478C70.1755 82.886 69.3715 83.09 68.4835 83.09C67.6915 83.09 66.9775 82.922 66.3415 82.586C65.7175 82.25 65.2135 81.764 64.8295 81.128V83H63.6055V69.644H64.8835V75.332C65.2795 74.72 65.7835 74.258 66.3955 73.946C67.0195 73.622 67.7155 73.46 68.4835 73.46ZM68.3935 81.956C69.0535 81.956 69.6535 81.806 70.1935 81.506C70.7335 81.194 71.1535 80.756 71.4535 80.192C71.7655 79.628 71.9215 78.986 71.9215 78.266C71.9215 77.546 71.7655 76.904 71.4535 76.34C71.1535 75.776 70.7335 75.344 70.1935 75.044C69.6535 74.732 69.0535 74.576 68.3935 74.576C67.7215 74.576 67.1155 74.732 66.5755 75.044C66.0475 75.344 65.6275 75.776 65.3155 76.34C65.0155 76.904 64.8655 77.546 64.8655 78.266C64.8655 78.986 65.0155 79.628 65.3155 80.192C65.6275 80.756 66.0475 81.194 66.5755 81.506C67.1155 81.806 67.7215 81.956 68.3935 81.956ZM86.8387 78.662H78.9187C78.9907 79.646 79.3687 80.444 80.0527 81.056C80.7367 81.656 81.6007 81.956 82.6447 81.956C83.2327 81.956 83.7727 81.854 84.2647 81.65C84.7567 81.434 85.1827 81.122 85.5427 80.714L86.2627 81.542C85.8427 82.046 85.3147 82.43 84.6787 82.694C84.0547 82.958 83.3647 83.09 82.6087 83.09C81.6367 83.09 80.7727 82.886 80.0167 82.478C79.2727 82.058 78.6907 81.482 78.2707 80.75C77.8507 80.018 77.6407 79.19 77.6407 78.266C77.6407 77.342 77.8387 76.514 78.2347 75.782C78.6427 75.05 79.1947 74.48 79.8907 74.072C80.5987 73.664 81.3907 73.46 82.2667 73.46C83.1427 73.46 83.9287 73.664 84.6247 74.072C85.3207 74.48 85.8667 75.05 86.2627 75.782C86.6587 76.502 86.8567 77.33 86.8567 78.266L86.8387 78.662ZM82.2667 74.558C81.3547 74.558 80.5867 74.852 79.9627 75.44C79.3507 76.016 79.0027 76.772 78.9187 77.708H85.6327C85.5487 76.772 85.1947 76.016 84.5707 75.44C83.9587 74.852 83.1907 74.558 82.2667 74.558ZM97.234 82.424C96.994 82.64 96.694 82.808 96.334 82.928C95.986 83.036 95.62 83.09 95.236 83.09C94.348 83.09 93.664 82.85 93.184 82.37C92.704 81.89 92.464 81.212 92.464 80.336V74.612H90.772V73.532H92.464V71.462H93.742V73.532H96.622V74.612H93.742V80.264C93.742 80.828 93.88 81.26 94.156 81.56C94.444 81.848 94.852 81.992 95.38 81.992C95.644 81.992 95.896 81.95 96.136 81.866C96.388 81.782 96.604 81.662 96.784 81.506L97.234 82.424ZM105.662 73.46C106.898 73.46 107.846 73.772 108.506 74.396C109.166 75.008 109.496 75.92 109.496 77.132V83H108.272V81.524C107.984 82.016 107.558 82.4 106.994 82.676C106.442 82.952 105.782 83.09 105.014 83.09C103.958 83.09 103.118 82.838 102.494 82.334C101.87 81.83 101.558 81.164 101.558 80.336C101.558 79.532 101.846 78.884 102.422 78.392C103.01 77.9 103.94 77.654 105.212 77.654H108.218V77.078C108.218 76.262 107.99 75.644 107.534 75.224C107.078 74.792 106.412 74.576 105.536 74.576C104.936 74.576 104.36 74.678 103.808 74.882C103.256 75.074 102.782 75.344 102.386 75.692L101.81 74.738C102.29 74.33 102.866 74.018 103.538 73.802C104.21 73.574 104.918 73.46 105.662 73.46ZM105.212 82.082C105.932 82.082 106.55 81.92 107.066 81.596C107.582 81.26 107.966 80.78 108.218 80.156V78.608H105.248C103.628 78.608 102.818 79.172 102.818 80.3C102.818 80.852 103.028 81.29 103.448 81.614C103.868 81.926 104.456 82.082 105.212 82.082Z" fill="#1D1D1F"/>
<defs>
<linearGradient id="paint0_linear" x1="22.2531" y1="41.2825" x2="22.2531" y2="74.14" gradientUnits="userSpaceOnUse">
<stop stop-color="white"/>
<stop offset="1" stop-color="white" stop-opacity="0.3"/>
<stop offset="1" stop-color="#A65D5D" stop-opacity="0"/>
</linearGradient>
<linearGradient id="paint1_linear" x1="41.2232" y1="41.2825" x2="41.2232" y2="74.14" gradientUnits="userSpaceOnUse">
<stop stop-color="white" stop-opacity="0.3"/>
<stop offset="1" stop-color="white"/>
</linearGradient>
<linearGradient id="paint2_linear" x1="31.7381" y1="30.3301" x2="31.7381" y2="52.2352" gradientUnits="userSpaceOnUse">
<stop stop-color="white" stop-opacity="0.3"/>
<stop offset="1" stop-color="white"/>
</linearGradient>
</defs>
</svg>
